<svg class="self-size" width="144px" height="32px" viewBox="0 0 144 32" xmlns="http://www.w3.org/2000/svg">
  <g stroke="none" stroke-width="1" fill="none" fill-rule="evenodd">
    <g transform="translate(-262.000000, -156.000000)">
      <g transform="translate(40.000000, 96.000000)">
        <g transform="translate(222.000000, 60.000000)">
          <g class="fill" transform="translate(32.000000, 3.000000)" fill="#FFFFFF" fill-rule="nonzero">
            <path d="M9.932,20.544 C10.452,20.544 10.816,20.856 10.816,21.272 C10.816,21.688 10.452,22 9.932,22 L2.704,22 C2.184,22 1.82,21.636 1.82,21.116 L1.82,4.684 C1.82,4.164 2.132,3.8 2.6,3.8 C3.068,3.8 3.38,4.164 3.38,4.684 L3.38,20.544 L9.932,20.544 Z M14.602095,6.608 C13.926095,6.608 13.406095,6.088 13.406095,5.412 C13.406095,4.788 13.926095,4.268 14.602095,4.268 C15.226095,4.268 15.746095,4.788 15.746095,5.412 C15.746095,6.088 15.226095,6.608 14.602095,6.608 Z M15.330095,10.716 L15.330095,21.168 C15.330095,21.636 15.018095,21.948 14.602095,21.948 C14.186095,21.948 13.874095,21.636 13.874095,21.168 L13.874095,10.716 C13.874095,10.248 14.186095,9.936 14.602095,9.936 C15.018095,9.936 15.330095,10.248 15.330095,10.716 Z M27.69619,10.508 C27.90419,10.04 28.37219,9.832 28.78819,10.04 C29.20419,10.248 29.25619,10.664 29.04819,11.132 L24.78419,21.22 C24.62819,21.636 24.26419,22 23.74419,22 C23.22419,22 22.91219,21.688 22.70419,21.22 L18.44019,11.132 C18.23219,10.664 18.28419,10.248 18.70019,10.04 C19.11619,9.832 19.58419,10.04 19.79219,10.508 L23.74419,20.232 L27.69619,10.508 Z M33.042285,16.072 C33.042285,18.828 34.550285,20.908 37.358285,20.908 C38.554285,20.908 39.386285,20.492 40.478285,19.764 C40.790285,19.556 41.206285,19.4 41.570285,19.764 C41.882285,20.076 41.830285,20.544 41.414285,20.856 C40.218285,21.74 38.866285,22.364 37.358285,22.364 C33.666285,22.364 31.482285,19.4 31.482285,15.76 C31.482285,11.964 34.082285,9.52 37.098285,9.52 C40.712285,9.52 42.142285,12.64 42.402285,15.032 C42.454285,15.5 42.298285,16.02 41.466285,16.02 L40.686285,16.072 L33.042285,16.072 Z M40.894285,14.616 C40.530285,12.38 38.970285,10.924 37.098285,10.924 C34.862285,10.924 33.562285,12.432 33.094285,14.616 L40.894285,14.616 Z"/>
            <path d="M57.48,5.412 C57.48,4.476 58.104,3.8 59.04,3.8 C59.924,3.8 60.548,4.476 60.548,5.412 L60.548,20.388 C60.548,21.324 59.924,22 59.04,22 C58.104,22 57.48,21.324 57.48,20.388 L57.48,13.992 L50.096,13.992 L50.096,20.388 C50.096,21.324 49.472,22 48.588,22 C47.652,22 47.028,21.324 47.028,20.388 L47.028,5.412 C47.028,4.476 47.652,3.8 48.588,3.8 C49.472,3.8 50.096,4.476 50.096,5.412 L50.096,10.976 L57.48,10.976 L57.48,5.412 Z M66.528,16.644 C66.892,18.412 68.296,19.504 70.012,19.504 C70.948,19.504 71.78,19.296 72.612,18.776 C72.976,18.516 73.86,18.152 74.536,18.828 C75.056,19.348 75.056,19.92 74.536,20.596 C73.964,21.376 71.936,22.364 70.012,22.364 C66.58,22.364 63.616,19.504 63.616,15.656 C63.616,11.652 66.528,8.948 69.752,8.948 C73.418,8.948 75.108,11.704 75.576,14.356 C75.784,15.552 75.576,16.644 73.86,16.644 L66.528,16.644 Z M72.768,14.148 C72.404,12.64 71.156,11.6 69.752,11.6 C68.296,11.6 67.1,12.64 66.476,14.148 L72.768,14.148 Z M90.604,20.908 C90.656,21.74 90.032,22.364 89.252,22.364 C88.524,22.364 88.004,21.896 87.848,21.22 C86.704,22 85.612,22.416 84.364,22.416 C81.192,22.416 77.916,19.92 77.916,15.708 C77.916,11.756 81.244,8.948 84.364,8.948 C85.56,8.948 86.704,9.364 87.796,10.092 C87.9,9.416 88.472,8.948 89.2,8.948 C90.032,8.948 90.604,9.572 90.604,10.404 L90.604,20.908 Z M84.364,19.556 C86.236,19.556 87.796,18.204 87.796,15.708 C87.796,13.16 86.392,11.808 84.364,11.808 C82.544,11.808 80.776,13.264 80.776,15.708 C80.776,18.204 82.388,19.556 84.364,19.556 Z M97.728,18.048 C97.728,19.14 98.3,19.66 99.236,19.608 C99.86,19.556 100.328,19.764 100.588,20.284 C101.004,21.116 100.484,22.104 99.392,22.26 C96.272,22.676 94.868,20.804 94.868,17.84 L94.868,11.964 L94.608,11.964 C93.776,11.964 93.152,11.392 93.152,10.612 C93.152,9.832 93.776,9.312 94.608,9.312 L94.868,9.312 L94.868,6.764 C94.868,5.932 95.492,5.308 96.324,5.308 C97.156,5.308 97.728,5.932 97.728,6.764 L97.728,9.312 L98.768,9.312 C99.6,9.312 100.224,9.884 100.224,10.612 C100.224,11.392 99.6,11.964 98.768,11.964 L97.728,11.964 L97.728,18.048 Z M102.876,18.984 C103.448,18.516 104.124,18.724 104.748,19.14 C105.372,19.556 105.944,19.764 106.724,19.764 C108.128,19.764 108.96,19.14 108.96,18.412 C108.96,17.632 108.388,17.164 106.776,16.644 C103.76,15.656 102.616,14.512 102.616,12.588 C102.616,10.456 104.852,8.948 107.088,8.948 C108.492,8.948 109.688,9.364 110.52,10.04 C111.144,10.56 111.196,11.496 110.624,12.016 C109.948,12.64 109.272,12.276 108.648,11.912 C108.128,11.6 107.608,11.496 107.036,11.496 C106.412,11.496 105.372,11.704 105.372,12.588 C105.372,13.212 106.048,13.68 107.66,14.148 C110.676,15.084 111.82,16.176 111.768,18.464 C111.664,21.012 109.116,22.364 106.724,22.364 C105.112,22.364 103.656,21.844 102.668,20.856 C102.148,20.284 102.304,19.452 102.876,18.984 Z"/>
          </g>
          <g>
            <rect class="fill" fill="#FFFFFE" x="0" y="18" width="4" height="10"/>
            <rect class="fill" fill="#FFFFFE" x="13" y="0" width="4" height="16"/>
            <rect class="fill" fill="#FFFFFE" x="0" y="28" width="17" height="4"/>
            <rect class="fill" fill="#FFFFFE" x="0" y="28" width="17" height="4"/>
            <rect class="fill" fill="#FFFFFE" x="0" y="12" width="17" height="4"/>
            <rect class="fill" fill="#FFFFFF" x="0" y="0" width="4" height="10" rx="1.5"/>
            <rect class="fill" fill="#FFFFFF" x="13" y="18" width="4" height="8" rx="1.5"/>
          </g>
        </g>
      </g>
    </g>
  </g>
</svg>
